<svg xmlns="http://www.w3.org/2000/svg" viewBox="0 0 240 144" role="img" aria-labelledby="title desc">
  <title id="title">The Garden Cinema</title>
  <desc id="desc">Simple vector logo tile for The Garden Cinema.</desc>
  <rect width="240" height="144" rx="28" fill="#f5f4f0"/>
  <rect x="8" y="8" width="224" height="128" rx="22" fill="none" stroke="#141414" stroke-width="2"/>
  <path d="M52 92c18-28 34-42 48-42 12 0 21 9 21 21 0 18-17 29-34 29-6 0-12-1-18-4" fill="none" stroke="#141414" stroke-width="6" stroke-linecap="round" stroke-linejoin="round"/>
  <path d="M135 46c13 0 25 9 31 23 2 5 3 10 3 15 0 22-17 40-40 40-13 0-24-5-31-14" fill="none" stroke="#141414" stroke-width="6" stroke-linecap="round" stroke-linejoin="round"/>
  <path d="M147 54c-4-9-2-20 8-28 9 8 11 19 7 28" fill="none" stroke="#141414" stroke-width="4.5" stroke-linecap="round" stroke-linejoin="round"/>
  <text x="24" y="118" fill="#141414" font-family="Helvetica Neue, Arial, sans-serif" font-size="17" font-weight="700" letter-spacing="2">THE GARDEN CINEMA</text>
</svg>
